<svg width="15" height="80" viewBox="0 0 15 80" fill="none" xmlns="http://www.w3.org/2000/svg">
<path d="M1 2.7793L1 0.696288L13.8496 0.696289L13.8496 7.94727L12.0742 7.94727L12.0742 2.7793L8.05762 2.7793L8.05762 7.62207L6.27344 7.62207L6.27344 2.7793L1 2.7793ZM5.87793 18.6787C4.29004 18.6787 3.05078 18.2715 2.16016 17.457C1.26953 16.6426 0.824218 15.5088 0.824218 14.0557C0.824218 13.1475 1.0293 12.3447 1.43945 11.6475C1.84961 10.9502 2.43848 10.4141 3.20605 10.0391C3.97363 9.66406 4.86426 9.47656 5.87793 9.47656C7.4541 9.47656 8.68457 9.88086 9.56934 10.6895C10.4541 11.498 10.8965 12.6377 10.8965 14.1084C10.8965 15.5146 10.4424 16.6279 9.53418 17.4482C8.63184 18.2686 7.41309 18.6787 5.87793 18.6787ZM5.87793 11.6035C3.63379 11.6035 2.51172 12.4326 2.51172 14.0908C2.51172 15.7314 3.63379 16.5518 5.87793 16.5518C8.09863 16.5518 9.20898 15.7256 9.20898 14.0732C9.20898 13.2061 8.92187 12.5762 8.34766 12.1836C7.77344 11.7969 6.95019 11.6035 5.87793 11.6035ZM0.999999 23.126L0.999999 21.0605L14.6758 21.0605L14.6758 23.126L0.999999 23.126ZM0.999999 28.1533L0.999999 26.0879L14.6758 26.0879L14.6758 28.1533L0.999999 28.1533ZM5.87793 39.7373C4.29004 39.7373 3.05078 39.3301 2.16015 38.5156C1.26953 37.7012 0.824217 36.5674 0.824217 35.1143C0.824217 34.2061 1.0293 33.4033 1.43945 32.7061C1.84961 32.0088 2.43848 31.4727 3.20605 31.0977C3.97363 30.7227 4.86426 30.5352 5.87793 30.5352C7.4541 30.5352 8.68457 30.9395 9.56933 31.748C10.4541 32.5566 10.8965 33.6963 10.8965 35.167C10.8965 36.5732 10.4424 37.6865 9.53418 38.5068C8.63183 39.3271 7.41308 39.7373 5.87793 39.7373ZM5.87793 32.6621C3.63379 32.6621 2.51172 33.4912 2.51172 35.1494C2.51172 36.79 3.63379 37.6104 5.87793 37.6104C8.09863 37.6104 9.20898 36.7842 9.20898 35.1318C9.20898 34.2646 8.92187 33.6348 8.34765 33.2422C7.77344 32.8555 6.95019 32.6621 5.87793 32.6621ZM0.999998 50.0908L5.53515 48.834C6.01562 48.6816 7.13183 48.4062 8.88379 48.0078L8.88379 47.9287C7.30176 47.5889 6.17969 47.3193 5.51758 47.1201L0.999998 45.8281L0.999998 43.543L10.7207 40.8184L10.7207 42.9277L5.93066 44.167C4.74707 44.4482 3.7334 44.6475 2.88965 44.7646L2.88965 44.8174C3.31738 44.876 3.80664 44.9639 4.35742 45.0811C4.91406 45.2041 5.33008 45.3096 5.60547 45.3975L10.7207 46.874L10.7207 49.1416L5.60547 50.5742C5.31836 50.6621 4.8789 50.7705 4.28711 50.8994C3.69531 51.0342 3.23535 51.1133 2.90722 51.1367L2.90722 51.207C3.62793 51.2949 4.63574 51.5 5.93066 51.8223L10.7207 53.0791L10.7207 55.1533L0.999998 52.4111L0.999998 50.0908ZM0.999997 68.3633L2.27441 68.0732L2.27441 67.9678C1.82324 67.6807 1.46875 67.2705 1.21093 66.7373C0.953122 66.21 0.824216 65.6064 0.824216 64.9268C0.824216 63.749 1.11718 62.8701 1.70312 62.29C2.28906 61.71 3.17676 61.4199 4.36621 61.4199L10.7207 61.4199L10.7207 63.5029L4.72656 63.5029C3.98242 63.5029 3.42285 63.6553 3.04785 63.96C2.67871 64.2646 2.49414 64.7422 2.49414 65.3926C2.49414 66.2598 2.75195 66.8955 3.26758 67.2998C3.78906 67.71 4.65918 67.915 5.87793 67.915L10.7207 67.915L10.7207 69.9893L0.999997 69.9893L0.999997 68.3633ZM3.76855 79.4639C2.81933 79.4639 2.08984 79.1182 1.58007 78.4268C1.07617 77.7354 0.824215 76.7451 0.824215 75.4561C0.824215 74.1611 1.0205 73.1211 1.41308 72.3359L3.19726 72.3359C2.66992 73.4785 2.40625 74.542 2.40625 75.5264C2.40625 76.7979 2.79004 77.4336 3.55761 77.4336C3.80371 77.4336 4.00879 77.3633 4.17285 77.2227C4.33691 77.082 4.50683 76.8506 4.68261 76.5283C4.8584 76.2061 5.05761 75.7578 5.28027 75.1836C5.71386 74.0645 6.14746 73.3057 6.58105 72.9072C7.01465 72.5146 7.57715 72.3184 8.26855 72.3184C9.10058 72.3184 9.74511 72.6523 10.2021 73.3203C10.665 73.9941 10.8965 74.9082 10.8965 76.0625C10.8965 77.2051 10.665 78.2861 10.2021 79.3057L8.64648 78.6377C9.08007 77.5889 9.29687 76.707 9.29687 75.9922C9.29687 74.9023 8.98632 74.3574 8.36523 74.3574C8.06054 74.3574 7.80273 74.498 7.59179 74.7793C7.38086 75.0664 7.09082 75.6875 6.72168 76.6426C6.41113 77.4453 6.12695 78.0283 5.86914 78.3916C5.61132 78.7549 5.3125 79.0244 4.97265 79.2002C4.63867 79.376 4.2373 79.4639 3.76855 79.4639Z" fill="white"/>
</svg>
